<mxfile host="Electron" agent="Mozilla/5.0 (Macintosh; Intel Mac OS X 10_15_7) AppleWebKit/537.36 (KHTML, like Gecko) draw.io/27.0.9 Chrome/134.0.6998.205 Electron/35.4.0 Safari/537.36" version="27.0.9">
  <diagram name="Page-1" id="hili9-eeeQ62crUBL5Fx">
    <mxGraphModel dx="779" dy="729" grid="1" gridSize="10" guides="1" tooltips="1" connect="1" arrows="1" fold="1" page="1" pageScale="1" pageWidth="850" pageHeight="1100" math="0" shadow="0">
      <root>
        <mxCell id="0" />
        <mxCell id="1" parent="0" />
        <mxCell id="FPu5eoLq59JfguMVHeY2-54" value="" style="group;dashed=1;dashPattern=1 1;strokeWidth=2;" parent="1" vertex="1" connectable="0">
          <mxGeometry x="60" y="120" width="724.07" height="450" as="geometry" />
        </mxCell>
        <mxCell id="FPu5eoLq59JfguMVHeY2-42" value="&lt;div&gt;env&lt;/div&gt;" style="rounded=0;whiteSpace=wrap;html=1;rotation=0;align=center;verticalAlign=top;fillColor=#ffcccc;fontSize=18;strokeColor=#36393d;" parent="FPu5eoLq59JfguMVHeY2-54" vertex="1">
          <mxGeometry width="540" height="450" as="geometry" />
        </mxCell>
        <mxCell id="FPu5eoLq59JfguMVHeY2-50" value="" style="endArrow=classic;html=1;rounded=0;" parent="FPu5eoLq59JfguMVHeY2-54" edge="1">
          <mxGeometry width="50" height="50" relative="1" as="geometry">
            <mxPoint x="400" y="174" as="sourcePoint" />
            <mxPoint x="400" y="144" as="targetPoint" />
          </mxGeometry>
        </mxCell>
        <mxCell id="FPu5eoLq59JfguMVHeY2-45" value="interface" style="rounded=0;whiteSpace=wrap;html=1;rotation=-90;fillColor=#cdeb8b;strokeColor=#36393d;" parent="FPu5eoLq59JfguMVHeY2-54" vertex="1">
          <mxGeometry x="495.95000000000005" y="280.00000000000006" width="158.12" height="30" as="geometry" />
        </mxCell>
        <mxCell id="FPu5eoLq59JfguMVHeY2-44" value="&lt;div&gt;predictor&lt;/div&gt;" style="rounded=0;whiteSpace=wrap;html=1;rotation=0;fillColor=#cce5ff;strokeColor=#36393d;" parent="FPu5eoLq59JfguMVHeY2-54" vertex="1">
          <mxGeometry x="315" y="106" width="90" height="40" as="geometry" />
        </mxCell>
        <mxCell id="FPu5eoLq59JfguMVHeY2-43" value="&lt;div&gt;&amp;nbsp;agent&lt;/div&gt;" style="rounded=0;whiteSpace=wrap;html=1;rotation=0;align=center;verticalAlign=top;fillColor=#cce5ff;strokeColor=#36393d;" parent="FPu5eoLq59JfguMVHeY2-54" vertex="1">
          <mxGeometry x="212" y="171" width="275" height="259" as="geometry" />
        </mxCell>
        <mxCell id="FPu5eoLq59JfguMVHeY2-20" value="&lt;div&gt;&amp;nbsp;agent&lt;/div&gt;" style="rounded=0;whiteSpace=wrap;html=1;rotation=0;align=center;verticalAlign=top;fillColor=#cce5ff;strokeColor=#36393d;fontSize=18;" parent="FPu5eoLq59JfguMVHeY2-54" vertex="1">
          <mxGeometry x="205" y="180" width="275" height="260" as="geometry" />
        </mxCell>
        <mxCell id="FPu5eoLq59JfguMVHeY2-24" value="&lt;div&gt;sequencer&lt;/div&gt;" style="rounded=0;whiteSpace=wrap;html=1;rotation=0;align=center;verticalAlign=top;fillColor=#1ba1e2;strokeColor=#006EAF;fontColor=#ffffff;fontSize=18;" parent="FPu5eoLq59JfguMVHeY2-54" vertex="1">
          <mxGeometry x="220" y="300" width="90" height="120" as="geometry" />
        </mxCell>
        <mxCell id="FPu5eoLq59JfguMVHeY2-5" value="DUT&lt;div&gt;&lt;br&gt;&lt;/div&gt;&lt;div&gt;&lt;br&gt;&lt;/div&gt;&lt;div&gt;&lt;br&gt;&lt;/div&gt;" style="rounded=0;whiteSpace=wrap;html=1;rotation=0;fillColor=#fff2cc;strokeColor=#d6b656;fontSize=16;" parent="FPu5eoLq59JfguMVHeY2-54" vertex="1">
          <mxGeometry x="624.07" y="200" width="100" height="200" as="geometry" />
        </mxCell>
        <mxCell id="FPu5eoLq59JfguMVHeY2-6" value="registers" style="rounded=0;whiteSpace=wrap;html=1;rotation=0;verticalAlign=top;fillColor=#fff2cc;strokeColor=#d6b656;fontSize=18;" parent="FPu5eoLq59JfguMVHeY2-54" vertex="1">
          <mxGeometry x="634.07" y="290" width="80" height="100" as="geometry" />
        </mxCell>
        <mxCell id="FPu5eoLq59JfguMVHeY2-9" value="" style="edgeStyle=orthogonalEdgeStyle;rounded=0;orthogonalLoop=1;jettySize=auto;html=1;" parent="FPu5eoLq59JfguMVHeY2-54" source="FPu5eoLq59JfguMVHeY2-7" target="FPu5eoLq59JfguMVHeY2-8" edge="1">
          <mxGeometry relative="1" as="geometry" />
        </mxCell>
        <mxCell id="FPu5eoLq59JfguMVHeY2-7" value="reg a" style="rounded=0;whiteSpace=wrap;html=1;rotation=0;verticalAlign=top;spacing=0;fillColor=#FFE599;" parent="FPu5eoLq59JfguMVHeY2-54" vertex="1">
          <mxGeometry x="654.07" y="320" width="40" height="20" as="geometry" />
        </mxCell>
        <mxCell id="FPu5eoLq59JfguMVHeY2-8" value="reg b" style="rounded=0;whiteSpace=wrap;html=1;rotation=0;verticalAlign=top;spacing=0;fillColor=#FFE599;" parent="FPu5eoLq59JfguMVHeY2-54" vertex="1">
          <mxGeometry x="654.07" y="340" width="40" height="20" as="geometry" />
        </mxCell>
        <mxCell id="FPu5eoLq59JfguMVHeY2-10" value="reg c" style="rounded=0;whiteSpace=wrap;html=1;rotation=0;verticalAlign=top;spacing=0;fillColor=#FFE599;" parent="FPu5eoLq59JfguMVHeY2-54" vertex="1">
          <mxGeometry x="654.07" y="360" width="40" height="20" as="geometry" />
        </mxCell>
        <mxCell id="FPu5eoLq59JfguMVHeY2-12" value="" style="endArrow=classic;html=1;rounded=0;exitX=1;exitY=0.5;exitDx=0;exitDy=0;entryX=0.118;entryY=0.008;entryDx=0;entryDy=0;entryPerimeter=0;" parent="FPu5eoLq59JfguMVHeY2-54" target="FPu5eoLq59JfguMVHeY2-4" edge="1">
          <mxGeometry width="50" height="50" relative="1" as="geometry">
            <mxPoint x="460" y="360" as="sourcePoint" />
            <mxPoint x="560" y="280" as="targetPoint" />
          </mxGeometry>
        </mxCell>
        <mxCell id="FPu5eoLq59JfguMVHeY2-13" value="" style="endArrow=classic;html=1;rounded=0;entryX=1;entryY=0.5;entryDx=0;entryDy=0;exitX=0.877;exitY=-0.015;exitDx=0;exitDy=0;exitPerimeter=0;" parent="FPu5eoLq59JfguMVHeY2-54" source="FPu5eoLq59JfguMVHeY2-4" edge="1">
          <mxGeometry width="50" height="50" relative="1" as="geometry">
            <mxPoint x="542" y="240" as="sourcePoint" />
            <mxPoint x="460" y="240" as="targetPoint" />
          </mxGeometry>
        </mxCell>
        <mxCell id="FPu5eoLq59JfguMVHeY2-14" value="" style="endArrow=classic;startArrow=classic;html=1;rounded=0;entryX=0;entryY=0.5;entryDx=0;entryDy=0;exitX=0.5;exitY=1;exitDx=0;exitDy=0;" parent="FPu5eoLq59JfguMVHeY2-54" source="FPu5eoLq59JfguMVHeY2-4" target="FPu5eoLq59JfguMVHeY2-5" edge="1">
          <mxGeometry width="50" height="50" relative="1" as="geometry">
            <mxPoint x="524.07" y="330" as="sourcePoint" />
            <mxPoint x="574.07" y="280" as="targetPoint" />
          </mxGeometry>
        </mxCell>
        <mxCell id="FPu5eoLq59JfguMVHeY2-16" value="" style="endArrow=classic;html=1;rounded=0;exitX=0.12;exitY=-0.005;exitDx=0;exitDy=0;exitPerimeter=0;" parent="FPu5eoLq59JfguMVHeY2-54" edge="1">
          <mxGeometry width="50" height="50" relative="1" as="geometry">
            <mxPoint x="389.60000000000014" y="199.60000000000002" as="sourcePoint" />
            <mxPoint x="389.8" y="150" as="targetPoint" />
          </mxGeometry>
        </mxCell>
        <mxCell id="FPu5eoLq59JfguMVHeY2-25" value="bus seq" style="rounded=0;whiteSpace=wrap;html=1;rotation=0;verticalAlign=top;spacing=0;fillColor=#e1d5e7;strokeColor=#9673a6;" parent="FPu5eoLq59JfguMVHeY2-54" vertex="1">
          <mxGeometry x="240" y="380" width="50" height="20" as="geometry" />
        </mxCell>
        <mxCell id="FPu5eoLq59JfguMVHeY2-26" value="reg seq" style="rounded=0;whiteSpace=wrap;html=1;rotation=0;verticalAlign=top;spacing=0;fillColor=#fff2cc;strokeColor=#d6b656;" parent="FPu5eoLq59JfguMVHeY2-54" vertex="1">
          <mxGeometry x="240" y="340" width="50" height="20" as="geometry" />
        </mxCell>
        <mxCell id="FPu5eoLq59JfguMVHeY2-22" value="reg seq" style="rounded=0;whiteSpace=wrap;html=1;rotation=0;verticalAlign=top;spacing=0;fillColor=#fff2cc;strokeColor=#d6b656;" parent="FPu5eoLq59JfguMVHeY2-54" vertex="1">
          <mxGeometry x="230" y="330" width="50" height="20" as="geometry" />
        </mxCell>
        <mxCell id="FPu5eoLq59JfguMVHeY2-23" value="bus seq" style="rounded=0;whiteSpace=wrap;html=1;rotation=0;verticalAlign=top;spacing=0;fillColor=#e1d5e7;strokeColor=#9673a6;" parent="FPu5eoLq59JfguMVHeY2-54" vertex="1">
          <mxGeometry x="230" y="370" width="50" height="20" as="geometry" />
        </mxCell>
        <mxCell id="FPu5eoLq59JfguMVHeY2-27" value="" style="endArrow=classic;html=1;rounded=0;" parent="FPu5eoLq59JfguMVHeY2-54" edge="1">
          <mxGeometry width="50" height="50" relative="1" as="geometry">
            <mxPoint x="310" y="326.74" as="sourcePoint" />
            <mxPoint x="380" y="326.74" as="targetPoint" />
          </mxGeometry>
        </mxCell>
        <mxCell id="FPu5eoLq59JfguMVHeY2-28" value="&lt;div&gt;RAL Model&lt;/div&gt;" style="rounded=0;whiteSpace=wrap;html=1;rotation=0;align=center;verticalAlign=top;fillColor=#cce5ff;strokeColor=#36393d;fontSize=18;" parent="FPu5eoLq59JfguMVHeY2-54" vertex="1">
          <mxGeometry x="20" y="64.06" width="120" height="325.94" as="geometry" />
        </mxCell>
        <mxCell id="FPu5eoLq59JfguMVHeY2-29" value="&lt;div&gt;registers database&lt;/div&gt;" style="rounded=0;whiteSpace=wrap;html=1;rotation=0;align=center;verticalAlign=top;fillColor=#fff2cc;strokeColor=#d6b656;fontSize=14;" parent="FPu5eoLq59JfguMVHeY2-54" vertex="1">
          <mxGeometry x="40" y="100" width="80" height="110" as="geometry" />
        </mxCell>
        <mxCell id="FPu5eoLq59JfguMVHeY2-30" value="reg a" style="rounded=0;whiteSpace=wrap;html=1;rotation=0;verticalAlign=top;spacing=0;fillColor=#FFE599;" parent="FPu5eoLq59JfguMVHeY2-54" vertex="1">
          <mxGeometry x="60" y="139" width="40" height="20" as="geometry" />
        </mxCell>
        <mxCell id="FPu5eoLq59JfguMVHeY2-31" value="reg b" style="rounded=0;whiteSpace=wrap;html=1;rotation=0;verticalAlign=top;spacing=0;fillColor=#FFE599;" parent="FPu5eoLq59JfguMVHeY2-54" vertex="1">
          <mxGeometry x="60" y="159" width="40" height="20" as="geometry" />
        </mxCell>
        <mxCell id="FPu5eoLq59JfguMVHeY2-32" value="reg c" style="rounded=0;whiteSpace=wrap;html=1;rotation=0;verticalAlign=top;spacing=0;fillColor=#FFE599;" parent="FPu5eoLq59JfguMVHeY2-54" vertex="1">
          <mxGeometry x="60" y="179" width="40" height="20" as="geometry" />
        </mxCell>
        <mxCell id="FPu5eoLq59JfguMVHeY2-33" value="" style="endArrow=classic;html=1;rounded=0;exitX=0;exitY=0.5;exitDx=0;exitDy=0;" parent="FPu5eoLq59JfguMVHeY2-54" source="FPu5eoLq59JfguMVHeY2-15" edge="1">
          <mxGeometry width="50" height="50" relative="1" as="geometry">
            <mxPoint x="230" y="270" as="sourcePoint" />
            <mxPoint x="120" y="130" as="targetPoint" />
          </mxGeometry>
        </mxCell>
        <mxCell id="FPu5eoLq59JfguMVHeY2-34" value="&lt;div&gt;adapter&lt;/div&gt;" style="rounded=0;whiteSpace=wrap;html=1;rotation=0;align=center;verticalAlign=top;fillColor=#fff2cc;strokeColor=#d6b656;fontSize=18;" parent="FPu5eoLq59JfguMVHeY2-54" vertex="1">
          <mxGeometry x="40" y="314.06" width="80" height="50" as="geometry" />
        </mxCell>
        <mxCell id="FPu5eoLq59JfguMVHeY2-35" value="" style="endArrow=classic;html=1;rounded=0;exitX=1;exitY=0.5;exitDx=0;exitDy=0;entryX=0;entryY=0.5;entryDx=0;entryDy=0;" parent="FPu5eoLq59JfguMVHeY2-54" source="FPu5eoLq59JfguMVHeY2-34" target="FPu5eoLq59JfguMVHeY2-22" edge="1">
          <mxGeometry width="50" height="50" relative="1" as="geometry">
            <mxPoint x="230" y="270" as="sourcePoint" />
            <mxPoint x="280" y="220" as="targetPoint" />
          </mxGeometry>
        </mxCell>
        <mxCell id="FPu5eoLq59JfguMVHeY2-36" value="" style="endArrow=classic;html=1;rounded=0;entryX=0.5;entryY=0;entryDx=0;entryDy=0;exitX=0.5;exitY=1;exitDx=0;exitDy=0;" parent="FPu5eoLq59JfguMVHeY2-54" source="FPu5eoLq59JfguMVHeY2-29" target="FPu5eoLq59JfguMVHeY2-34" edge="1">
          <mxGeometry width="50" height="50" relative="1" as="geometry">
            <mxPoint x="230" y="270" as="sourcePoint" />
            <mxPoint x="280" y="220" as="targetPoint" />
          </mxGeometry>
        </mxCell>
        <mxCell id="FPu5eoLq59JfguMVHeY2-37" value="&lt;div&gt;scoreboard&lt;/div&gt;" style="rounded=0;whiteSpace=wrap;html=1;rotation=0;fillColor=#cce5ff;strokeColor=#36393d;fontSize=18;" parent="FPu5eoLq59JfguMVHeY2-54" vertex="1">
          <mxGeometry x="336" y="20" width="100" height="60" as="geometry" />
        </mxCell>
        <mxCell id="FPu5eoLq59JfguMVHeY2-38" value="&lt;div&gt;functional coverage&lt;/div&gt;" style="rounded=0;whiteSpace=wrap;html=1;rotation=0;fillColor=#cce5ff;strokeColor=#36393d;fontSize=18;" parent="FPu5eoLq59JfguMVHeY2-54" vertex="1">
          <mxGeometry x="445" y="20" width="85" height="60" as="geometry" />
        </mxCell>
        <mxCell id="FPu5eoLq59JfguMVHeY2-39" value="" style="endArrow=classic;html=1;rounded=0;exitX=0.5;exitY=0;exitDx=0;exitDy=0;" parent="FPu5eoLq59JfguMVHeY2-54" edge="1">
          <mxGeometry width="50" height="50" relative="1" as="geometry">
            <mxPoint x="417" y="200" as="sourcePoint" />
            <mxPoint x="417" y="80" as="targetPoint" />
          </mxGeometry>
        </mxCell>
        <mxCell id="FPu5eoLq59JfguMVHeY2-40" value="" style="endArrow=classic;html=1;rounded=0;entryX=0.5;entryY=1;entryDx=0;entryDy=0;exitX=0.837;exitY=-0.025;exitDx=0;exitDy=0;exitPerimeter=0;" parent="FPu5eoLq59JfguMVHeY2-54" edge="1">
          <mxGeometry width="50" height="50" relative="1" as="geometry">
            <mxPoint x="388.3299999999999" y="109" as="sourcePoint" />
            <mxPoint x="389" y="80" as="targetPoint" />
          </mxGeometry>
        </mxCell>
        <mxCell id="FPu5eoLq59JfguMVHeY2-41" value="" style="endArrow=classic;html=1;rounded=0;exitX=0.5;exitY=0;exitDx=0;exitDy=0;" parent="FPu5eoLq59JfguMVHeY2-54" edge="1">
          <mxGeometry width="50" height="50" relative="1" as="geometry">
            <mxPoint x="453" y="200" as="sourcePoint" />
            <mxPoint x="453" y="80" as="targetPoint" />
          </mxGeometry>
        </mxCell>
        <mxCell id="FPu5eoLq59JfguMVHeY2-46" value="" style="endArrow=classic;startArrow=classic;html=1;rounded=0;exitX=0.604;exitY=1.033;exitDx=0;exitDy=0;exitPerimeter=0;entryX=0.001;entryY=0.395;entryDx=0;entryDy=0;entryPerimeter=0;" parent="FPu5eoLq59JfguMVHeY2-54" edge="1">
          <mxGeometry width="50" height="50" relative="1" as="geometry">
            <mxPoint x="591" y="286.5555200000001" as="sourcePoint" />
            <mxPoint x="624.1700000000001" y="287" as="targetPoint" />
          </mxGeometry>
        </mxCell>
        <mxCell id="FPu5eoLq59JfguMVHeY2-47" value="" style="endArrow=classic;html=1;rounded=0;entryX=1;entryY=0.5;entryDx=0;entryDy=0;" parent="FPu5eoLq59JfguMVHeY2-54" edge="1">
          <mxGeometry width="50" height="50" relative="1" as="geometry">
            <mxPoint x="553" y="229" as="sourcePoint" />
            <mxPoint x="485" y="229" as="targetPoint" />
          </mxGeometry>
        </mxCell>
        <mxCell id="FPu5eoLq59JfguMVHeY2-49" value="" style="endArrow=classic;html=1;rounded=0;exitX=1.001;exitY=0.718;exitDx=0;exitDy=0;exitPerimeter=0;" parent="FPu5eoLq59JfguMVHeY2-54" edge="1">
          <mxGeometry width="50" height="50" relative="1" as="geometry">
            <mxPoint x="487.2750000000001" y="349.5" as="sourcePoint" />
            <mxPoint x="558.95" y="349" as="targetPoint" />
          </mxGeometry>
        </mxCell>
        <mxCell id="FPu5eoLq59JfguMVHeY2-4" value="interface" style="rounded=0;whiteSpace=wrap;html=1;rotation=-90;fillColor=#cdeb8b;strokeColor=#36393d;fontSize=18;" parent="FPu5eoLq59JfguMVHeY2-54" vertex="1">
          <mxGeometry x="490" y="284.06" width="158.12" height="30" as="geometry" />
        </mxCell>
        <mxCell id="FPu5eoLq59JfguMVHeY2-15" value="&lt;div&gt;predictor&lt;/div&gt;" style="rounded=0;whiteSpace=wrap;html=1;rotation=0;fillColor=#cce5ff;strokeColor=#36393d;fontSize=18;" parent="FPu5eoLq59JfguMVHeY2-54" vertex="1">
          <mxGeometry x="310" y="110" width="90" height="40" as="geometry" />
        </mxCell>
        <mxCell id="FPu5eoLq59JfguMVHeY2-51" value="" style="endArrow=classic;html=1;rounded=0;" parent="FPu5eoLq59JfguMVHeY2-54" edge="1">
          <mxGeometry width="50" height="50" relative="1" as="geometry">
            <mxPoint x="427" y="171.5" as="sourcePoint" />
            <mxPoint x="427" y="80" as="targetPoint" />
          </mxGeometry>
        </mxCell>
        <mxCell id="FPu5eoLq59JfguMVHeY2-52" value="" style="endArrow=classic;html=1;rounded=0;" parent="FPu5eoLq59JfguMVHeY2-54" edge="1">
          <mxGeometry width="50" height="50" relative="1" as="geometry">
            <mxPoint x="462.72" y="170.94" as="sourcePoint" />
            <mxPoint x="462.72" y="80" as="targetPoint" />
          </mxGeometry>
        </mxCell>
        <mxCell id="FPu5eoLq59JfguMVHeY2-53" value="" style="endArrow=classic;html=1;rounded=0;exitX=0.931;exitY=-0.016;exitDx=0;exitDy=0;exitPerimeter=0;entryX=0.635;entryY=1.003;entryDx=0;entryDy=0;entryPerimeter=0;" parent="FPu5eoLq59JfguMVHeY2-54" source="FPu5eoLq59JfguMVHeY2-44" target="FPu5eoLq59JfguMVHeY2-37" edge="1">
          <mxGeometry width="50" height="50" relative="1" as="geometry">
            <mxPoint x="400" y="110" as="sourcePoint" />
            <mxPoint x="400" y="80" as="targetPoint" />
          </mxGeometry>
        </mxCell>
        <mxCell id="QJinPQ05mmz9rJtJRGcr-1" value="monitor" style="rounded=0;whiteSpace=wrap;html=1;fontSize=18;fillColor=#60a917;fontColor=#ffffff;strokeColor=#2D7600;" parent="FPu5eoLq59JfguMVHeY2-54" vertex="1">
          <mxGeometry x="380" y="230" width="90" height="60" as="geometry" />
        </mxCell>
        <mxCell id="QJinPQ05mmz9rJtJRGcr-2" value="driver" style="rounded=0;whiteSpace=wrap;html=1;fontSize=18;fillColor=#f0a30a;fontColor=#FFFFFF;strokeColor=#BD7000;" parent="FPu5eoLq59JfguMVHeY2-54" vertex="1">
          <mxGeometry x="380" y="340" width="90" height="64.06" as="geometry" />
        </mxCell>
        <mxCell id="QJinPQ05mmz9rJtJRGcr-5" value="tlp" style="rounded=0;whiteSpace=wrap;html=1;fontSize=18;fillColor=#f0a30a;fontColor=#FFFFFF;strokeColor=#BD7000;dashed=1;strokeWidth=3;dashPattern=1 1;" parent="FPu5eoLq59JfguMVHeY2-54" vertex="1">
          <mxGeometry x="380" y="310" width="90" height="30" as="geometry" />
        </mxCell>
        <mxCell id="QJinPQ05mmz9rJtJRGcr-6" value="tlp" style="rounded=0;whiteSpace=wrap;html=1;fontSize=18;fillColor=#60a917;fontColor=#ffffff;strokeColor=#2D7600;dashed=1;dashPattern=1 1;strokeWidth=3;" parent="FPu5eoLq59JfguMVHeY2-54" vertex="1">
          <mxGeometry x="380" y="200" width="90" height="30" as="geometry" />
        </mxCell>
      </root>
    </mxGraphModel>
  </diagram>
</mxfile>
